<svg width="55" height="25" viewBox="0 0 55 25" fill="none" xmlns="http://www.w3.org/2000/svg">
<path d="M22.9732 21.0713H28.908C30.5649 21.0713 31.908 22.4145 31.908 24.0713C31.908 24.3079 31.716 24.4999 31.4794 24.4999H20.3367C19.153 24.4999 18.1938 23.5407 18.1938 22.357V22.213C18.1938 21.709 18.3713 21.2213 18.6953 20.8356L27.1286 10.7857H21.1938C19.537 10.7857 18.1938 9.44259 18.1938 7.78575C18.1938 7.54918 18.3858 7.35718 18.6224 7.35718H29.7652C30.9489 7.35718 31.908 8.31631 31.908 9.50002V9.64316C31.908 10.1472 31.7306 10.6349 31.4066 11.0206L22.9732 21.0713Z" fill="#23B4FF"/>
<path d="M11.9043 7.35718H1.61871C1.50043 7.35718 1.39328 7.40517 1.31528 7.48317C1.23814 7.56032 1.19014 7.66746 1.19014 7.78575C1.19014 9.44259 2.53327 10.7857 4.19012 10.7857H11.9043C12.1409 10.7857 12.3329 10.9777 12.3329 11.2143V14.2143H4.19012C2.06014 14.2143 0.333008 15.9414 0.333008 18.0714V20.6428C0.333008 22.7728 2.06014 24.4999 4.19012 24.4999H11.0472C11.8872 24.4999 12.6458 24.1545 13.19 23.599C13.7343 24.1545 14.4929 24.4999 15.332 24.4999C15.5686 24.4999 15.7614 24.3079 15.7614 24.0713V11.2143C15.7614 9.08345 14.0343 7.35718 11.9043 7.35718ZM11.9043 21.0713H4.19012C3.95355 21.0713 3.76155 20.8793 3.76155 20.6428V18.0714C3.76155 17.8348 3.95355 17.6428 4.19012 17.6428H9.71264H11.0472H12.3329V20.6428C12.3329 20.8793 12.1409 21.0713 11.9043 21.0713Z" fill="#23B4FF"/>
<path d="M37.7698 0.928568V21.4998C37.7698 23.1567 36.4267 24.4998 34.7699 24.4998C34.5333 24.4998 34.3413 24.3078 34.3413 24.0712V3.49997C34.3413 1.84313 35.6844 0.5 37.3413 0.5C37.5779 0.5 37.7698 0.691998 37.7698 0.928568Z" fill="#23B4FF"/>
<path d="M47.9309 23.0152C48.014 23.0983 48.056 23.208 48.056 23.3177C48.056 23.4275 48.014 23.5372 47.9309 23.6212C46.7591 24.7929 44.8597 24.7929 43.688 23.6212L38.4201 18.3524L35.9961 15.9284L38.4201 13.5044L43.688 8.23559C44.8597 7.06389 46.7591 7.06389 47.9309 8.23559C48.014 8.31959 48.056 8.4293 48.056 8.53901C48.056 8.64873 48.014 8.75844 47.9309 8.84158L40.8441 15.9284L47.9309 23.0152Z" fill="#23B4FF"/>
<path d="M53.9168 7.78575V21.4999C53.9168 23.1568 52.5737 24.4999 50.9168 24.4999C50.6803 24.4999 50.4883 24.3079 50.4883 24.0713V10.3572C50.4883 8.70031 51.8314 7.35718 53.4883 7.35718C53.7248 7.35718 53.9168 7.54918 53.9168 7.78575Z" fill="#23B4FF"/>
<path d="M52.2024 4.78568C53.3859 4.78568 54.3452 3.82629 54.3452 2.64284C54.3452 1.45938 53.3859 0.5 52.2024 0.5C51.019 0.5 50.0596 1.45938 50.0596 2.64284C50.0596 3.82629 51.019 4.78568 52.2024 4.78568Z" fill="#23B4FF"/>
</svg>
