<svg width="56" height="56" viewBox="0 0 56 56" fill="none" xmlns="http://www.w3.org/2000/svg">
<path d="M18.9158 7.35263L23.7052 4L28.4947 7.35263V15.0158H18.9158V7.35263Z" fill="#D6EBFF"/>
<path fill-rule="evenodd" clip-rule="evenodd" d="M23.7 4.00366L18.9158 7.3526V15.0158H23.7V4.00366Z" fill="#EBF5FF"/>
<path fill-rule="evenodd" clip-rule="evenodd" d="M19.7688 6.75553C19.2342 7.12978 18.9158 7.74136 18.9158 8.39399V15.0158H20.5V9.3782C20.5 8.72557 20.8184 8.11399 21.353 7.73973L24.716 5.38568C24.9323 5.23422 25.1937 5.17794 25.4435 5.21683L24.2787 4.40147C23.9344 4.16045 23.4761 4.16045 23.1318 4.40147L19.7688 6.75553Z" fill="white"/>
<path d="M28.4947 15.0158V8.39394C28.4947 7.74131 28.1763 7.12974 27.6416 6.75548L24.2787 4.40142C23.9344 4.1604 23.4761 4.1604 23.1318 4.40142L19.7688 6.75548C19.2342 7.12974 18.9158 7.74131 18.9158 8.39394V15.0158" stroke="url(#paint0_linear_3496_281)" stroke-width="0.5" stroke-linecap="round" stroke-linejoin="round"/>
<path opacity="0.35" d="M18.9158 22H28.4947V48.5C28.4947 49.0523 28.047 49.5 27.4947 49.5H19.9158C19.3635 49.5 18.9158 49.0523 18.9158 48.5V22Z" fill="url(#paint1_linear_3496_281)" stroke="url(#paint2_linear_3496_281)" stroke-opacity="0.4" stroke-width="0.5" stroke-linejoin="round"/>
<path opacity="0.35" fill-rule="evenodd" clip-rule="evenodd" d="M28.4947 22H18.9158V48.5C18.9158 49.0523 19.3635 49.5 19.9158 49.5H27.4947C28.047 49.5 28.4947 49.0523 28.4947 48.5V22ZM26.5 24H19V29.2516C19 30.025 19.8404 30.5057 20.507 30.1135L27.007 26.29C27.3124 26.1103 27.5 25.7824 27.5 25.4281V25C27.5 24.4477 27.0523 24 26.5 24Z" fill="url(#paint3_linear_3496_281)"/>
<path fill-rule="evenodd" clip-rule="evenodd" d="M20.5 22H18.9158V48.5C18.9158 49.0523 19.3635 49.5 19.9158 49.5H21.5C20.9477 49.5 20.5 49.0523 20.5 48.5V22Z" fill="white"/>
<path d="M18.9158 22H28.4947V48.5C28.4947 49.0523 28.047 49.5 27.4947 49.5H19.9158C19.3635 49.5 18.9158 49.0523 18.9158 48.5V22Z" stroke="url(#paint4_linear_3496_281)" stroke-width="0.5" stroke-linecap="round" stroke-linejoin="round"/>
<path d="M18.9158 22.1999H28.4947L29.9053 20.613C30.2308 20.2469 30.4105 19.7741 30.4105 19.2843V16.0157C30.4105 15.4635 29.9628 15.0157 29.4105 15.0157H18C17.4477 15.0157 17 15.4635 17 16.0157V19.2843C17 19.7741 17.1798 20.2469 17.5052 20.613L18.9158 22.1999Z" fill="#99CEFF"/>
<g style="mix-blend-mode:overlay">
<path d="M17 17H30.5V18H17V17Z" fill="#4B4B4B"/>
</g>
<g style="mix-blend-mode:overlay">
<path d="M17 19H30.5V20H17V19Z" fill="#4B4B4B"/>
</g>
<g style="mix-blend-mode:overlay">
<path fill-rule="evenodd" clip-rule="evenodd" d="M17.8491 21.0001L18.9158 22.2001H28.4947L29.9053 20.6131C30.2308 20.247 30.4105 19.7742 30.4105 19.2844V16.0159C30.4105 15.4636 29.9628 15.0159 29.4105 15.0159H28.9947V18.0844C28.9947 18.5742 28.815 19.047 28.4895 19.4131L27.6756 20.3288C27.2961 20.7558 26.7521 21.0001 26.1808 21.0001H17.8491Z" fill="#4B4B4B"/>
</g>
<path d="M18.6174 21.8643C18.8072 22.0778 19.0792 22.1999 19.3649 22.1999H28.0457C28.3313 22.1999 28.6033 22.0778 28.7931 21.8643L29.9053 20.613C30.2308 20.2469 30.4105 19.7741 30.4105 19.2843V16.0157C30.4105 15.4635 29.9628 15.0157 29.4105 15.0157H18C17.4477 15.0157 17 15.4635 17 16.0157V19.2843C17 19.7741 17.1798 20.2469 17.5052 20.613L18.6174 21.8643Z" stroke="url(#paint5_linear_3496_281)" stroke-width="0.5" stroke-linecap="round" stroke-linejoin="round"/>
<path d="M17 43.1162C17 37.2958 20.1607 31.9346 25.2534 29.1166L32.5633 25.0716C33.7684 24.4049 35.2316 24.4049 36.4367 25.0716L43.7466 29.1166C48.8393 31.9346 52 37.2958 52 43.1162V50H17V43.1162Z" fill="url(#paint6_linear_3496_281)" stroke="url(#paint7_linear_3496_281)" stroke-opacity="0.4" stroke-width="0.5" stroke-linejoin="round"/>
<rect x="17" y="41" width="35" height="2" fill="url(#paint8_linear_3496_281)"/>
<g style="mix-blend-mode:overlay">
<path fill-rule="evenodd" clip-rule="evenodd" d="M17 46V50H52V43.1162C52 37.2958 48.8393 31.9346 43.7466 29.1166L37.7824 25.8163L44.6473 32.0755C47.7566 34.9104 49.624 38.856 49.8451 43.0578L49.9446 44.9474C49.9747 45.5196 49.5189 46 48.946 46H17Z" fill="#585858"/>
</g>
<path fill-rule="evenodd" clip-rule="evenodd" d="M25.2534 29.1166C20.1607 31.9346 17 37.2958 17 43.1162V50H19V44.1162C19 38.2958 22.1607 32.9346 27.2534 30.1166L34.5633 26.0716C35.5126 25.5464 36.6221 25.4349 37.6394 25.7372L36.4367 25.0716C35.2316 24.4048 33.7684 24.4048 32.5633 25.0716L25.2534 29.1166Z" fill="white"/>
<path d="M17 43.1162C17 37.2958 20.1607 31.9346 25.2534 29.1166L32.5633 25.0716C33.7684 24.4049 35.2316 24.4049 36.4367 25.0716L43.7466 29.1166C48.8393 31.9346 52 37.2958 52 43.1162V50H17V43.1162Z" stroke="url(#paint9_linear_3496_281)" stroke-width="0.5" stroke-linecap="round" stroke-linejoin="round"/>
<path d="M5.47314 20.7097L9.34411 18L13.2151 20.7097V26.9032H5.47314V20.7097Z" fill="#D6EBFF"/>
<path fill-rule="evenodd" clip-rule="evenodd" d="M9.40001 18.0391L9.34411 18L5.47314 20.7097V26.9032H9.40001V18.0391Z" fill="#EBF5FF"/>
<path fill-rule="evenodd" clip-rule="evenodd" d="M6.32622 20.1126C5.79157 20.4868 5.47314 21.0984 5.47314 21.751V26.9033H7V22.751C7 22.0984 7.31842 21.4868 7.85308 21.1126L10.2975 19.4015C10.5476 19.2264 10.8578 19.1785 11.1408 19.2577L9.91757 18.4015C9.57325 18.1604 9.11497 18.1604 8.77065 18.4015L6.32622 20.1126Z" fill="white"/>
<path d="M13.2151 26.9032V21.751C13.2151 21.0984 12.8967 20.4868 12.362 20.1125L9.91757 18.4014C9.57325 18.1604 9.11497 18.1604 8.77065 18.4014L6.32622 20.1125C5.79157 20.4868 5.47314 21.0984 5.47314 21.751V26.9032" stroke="url(#paint10_linear_3496_281)" stroke-width="0.5" stroke-linecap="round" stroke-linejoin="round"/>
<path opacity="0.35" d="M5.47314 32H13.2151V51C13.2151 51.5523 12.7674 52 12.2151 52H6.47315C5.92086 52 5.47314 51.5523 5.47314 51V32Z" fill="url(#paint11_linear_3496_281)" stroke="url(#paint12_linear_3496_281)" stroke-opacity="0.4" stroke-width="0.5" stroke-linejoin="round"/>
<path opacity="0.35" fill-rule="evenodd" clip-rule="evenodd" d="M13.2151 32H5.47314V34H11.2151C11.7674 34 12.2151 34.4477 12.2151 35V52C12.7674 52 13.2151 51.5523 13.2151 51V32Z" fill="url(#paint13_linear_3496_281)"/>
<path d="M5.5 32H7V51.25C7 51.6642 6.66422 52 6.25 52V52C5.83579 52 5.5 51.6642 5.5 51.25V32Z" fill="white"/>
<path d="M5.47314 32V51C5.47314 51.5523 5.92086 52 6.47315 52H12.2151C12.7674 52 13.2151 51.5523 13.2151 51V32" stroke="url(#paint14_linear_3496_281)" stroke-width="0.5" stroke-linecap="round" stroke-linejoin="round"/>
<path d="M5.47319 32.258H13.2151L14.2583 31.0845C14.5838 30.7183 14.7635 30.2455 14.7635 29.7557V27.9032C14.7635 27.3509 14.3158 26.9032 13.7635 26.9032H4.9248C4.37252 26.9032 3.9248 27.3509 3.9248 27.9032V29.7557C3.9248 30.2455 4.10456 30.7183 4.42999 31.0845L5.47319 32.258Z" fill="#99CEFF"/>
<g style="mix-blend-mode:overlay">
<path d="M4 28H15V29H4V28Z" fill="#4B4B4B"/>
</g>
<g style="mix-blend-mode:overlay">
<path d="M4 30H14.7665L14.5 31H4.32469L4 30Z" fill="#4B4B4B"/>
</g>
<g style="mix-blend-mode:overlay">
<path fill-rule="evenodd" clip-rule="evenodd" d="M4.67017 31.3548L5.47304 32.258H13.215L14.2582 31.0844C14.5836 30.7183 14.7634 30.2455 14.7634 29.7557V27.9032C14.7634 27.3509 14.3157 26.9032 13.7634 26.9032H13.4953C13.4983 26.935 13.4999 26.9673 13.4999 27V28.8525C13.4999 29.3423 13.3202 29.8151 12.9947 30.1812L12.2499 31.0192C12.0601 31.2326 11.7881 31.3548 11.5025 31.3548H4.67017Z" fill="#4B4B4B"/>
</g>
<path d="M5.17485 31.9224C5.36462 32.1359 5.63662 32.2581 5.92226 32.2581H12.7661C13.0517 32.2581 13.3237 32.1359 13.5135 31.9224L14.2583 31.0844C14.5838 30.7183 14.7635 30.2456 14.7635 29.7557V27.9032C14.7635 27.3509 14.3158 26.9032 13.7635 26.9032H4.9248C4.37252 26.9032 3.9248 27.3509 3.9248 27.9032V29.7557C3.9248 30.2455 4.10456 30.7183 4.42998 31.0844L5.17485 31.9224Z" stroke="url(#paint15_linear_3496_281)" stroke-width="0.5" stroke-linecap="round" stroke-linejoin="round"/>
<rect x="3" y="48" width="50" height="4" rx="1" fill="#99CEFF"/>
<g style="mix-blend-mode:overlay">
<path fill-rule="evenodd" clip-rule="evenodd" d="M3 51C3 51.5523 3.44771 52 4 52H52C52.5523 52 53 51.5523 53 51V49C53 48.4477 52.5523 48 52 48H50.9166V50C50.9166 50.5523 50.4689 51 49.9166 51H3Z" fill="#4B4B4B"/>
</g>
<rect x="3" y="48" width="50" height="4" rx="1" stroke="url(#paint16_linear_3496_281)" stroke-width="0.5" stroke-linecap="round" stroke-linejoin="round"/>
<defs>
<linearGradient id="paint0_linear_3496_281" x1="19" y1="27" x2="13.5116" y2="1.63497" gradientUnits="userSpaceOnUse">
<stop stop-color="#1B217C"/>
<stop offset="1" stop-color="#1B217C" stop-opacity="0"/>
</linearGradient>
<linearGradient id="paint1_linear_3496_281" x1="28.1789" y1="46.1315" x2="19.1263" y2="46.1315" gradientUnits="userSpaceOnUse">
<stop stop-color="#008FFF"/>
<stop offset="1" stop-color="#8BCEFF"/>
</linearGradient>
<linearGradient id="paint2_linear_3496_281" x1="28.6802" y1="49.5" x2="14.9206" y2="48.917" gradientUnits="userSpaceOnUse">
<stop stop-color="white"/>
<stop offset="1" stop-color="white" stop-opacity="0"/>
</linearGradient>
<linearGradient id="paint3_linear_3496_281" x1="28.1789" y1="46.1315" x2="19.1263" y2="46.1315" gradientUnits="userSpaceOnUse">
<stop stop-color="#008FFF"/>
<stop offset="1" stop-color="#8BCEFF"/>
</linearGradient>
<linearGradient id="paint4_linear_3496_281" x1="19" y1="79.4176" x2="-8.71816" y2="28.1037" gradientUnits="userSpaceOnUse">
<stop stop-color="#1B217C"/>
<stop offset="1" stop-color="#1B217C" stop-opacity="0"/>
</linearGradient>
<linearGradient id="paint5_linear_3496_281" x1="17.1179" y1="7.19995" x2="15.39" y2="24.3427" gradientUnits="userSpaceOnUse">
<stop stop-color="#1B217C"/>
<stop offset="1" stop-color="#1B217C" stop-opacity="0"/>
</linearGradient>
<linearGradient id="paint6_linear_3496_281" x1="50.8314" y1="46.8152" x2="26" y2="31.5" gradientUnits="userSpaceOnUse">
<stop stop-color="#008FFF"/>
<stop offset="1" stop-color="#8BCEFF"/>
</linearGradient>
<linearGradient id="paint7_linear_3496_281" x1="52.6869" y1="50" x2="3.02544" y2="41.7616" gradientUnits="userSpaceOnUse">
<stop stop-color="white"/>
<stop offset="1" stop-color="white" stop-opacity="0"/>
</linearGradient>
<linearGradient id="paint8_linear_3496_281" x1="48.8445" y1="42.755" x2="17.7237" y2="42.755" gradientUnits="userSpaceOnUse">
<stop stop-color="#008FFF"/>
<stop offset="1" stop-color="#33A5FF"/>
</linearGradient>
<linearGradient id="paint9_linear_3496_281" x1="17.3078" y1="78.2857" x2="8.71601" y2="16.8159" gradientUnits="userSpaceOnUse">
<stop stop-color="#1B217C"/>
<stop offset="1" stop-color="#1B217C" stop-opacity="0"/>
</linearGradient>
<linearGradient id="paint10_linear_3496_281" x1="5.54122" y1="36.5892" x2="1.10534" y2="16.0885" gradientUnits="userSpaceOnUse">
<stop stop-color="#1B217C"/>
<stop offset="1" stop-color="#1B217C" stop-opacity="0"/>
</linearGradient>
<linearGradient id="paint11_linear_3496_281" x1="12.9599" y1="49.5502" x2="5.6433" y2="49.5502" gradientUnits="userSpaceOnUse">
<stop stop-color="#008FFF"/>
<stop offset="1" stop-color="#8BCEFF"/>
</linearGradient>
<linearGradient id="paint12_linear_3496_281" x1="13.365" y1="52" x2="2.24884" y2="51.4766" gradientUnits="userSpaceOnUse">
<stop stop-color="white"/>
<stop offset="1" stop-color="white" stop-opacity="0"/>
</linearGradient>
<linearGradient id="paint13_linear_3496_281" x1="12.9599" y1="49.5502" x2="5.6433" y2="49.5502" gradientUnits="userSpaceOnUse">
<stop stop-color="#008FFF"/>
<stop offset="1" stop-color="#8BCEFF"/>
</linearGradient>
<linearGradient id="paint14_linear_3496_281" x1="5.54122" y1="73.7582" x2="-13.413" y2="34.763" gradientUnits="userSpaceOnUse">
<stop stop-color="#1B217C"/>
<stop offset="1" stop-color="#1B217C" stop-opacity="0"/>
</linearGradient>
<linearGradient id="paint15_linear_3496_281" x1="4.02011" y1="21.0776" x2="2.83056" y2="33.8744" gradientUnits="userSpaceOnUse">
<stop stop-color="#1B217C"/>
<stop offset="1" stop-color="#1B217C" stop-opacity="0"/>
</linearGradient>
<linearGradient id="paint16_linear_3496_281" x1="11.7912" y1="51.7216" x2="11.8262" y2="44.5333" gradientUnits="userSpaceOnUse">
<stop stop-color="#1B217C"/>
<stop offset="1" stop-color="#1B217C" stop-opacity="0"/>
</linearGradient>
</defs>
</svg>
